PathFileType	4	(X/Y/Z)	C:\Git\research_data\Projects\torsion_deformities_healthy_kinematics\simulations\TD01\pre\dynamic_12_l\marker_experimental.trc
DataRate	CameraRate	NumFrames	NumMarkers	Units	OrigDataRate	OrigDataStartFrame	OrigNumFrames
200	200	4	30	mm	200	77	609
Frame#	Time	C7			T10			CLAV			STRN			RBAK			LASI			RASI			SACR			RT1			RT2			RT3			RKNE			RS1			RS2			RS3			RANK			RHEE			RTOE			LT1			LT2			LT3			LKNE			LS1			LS2			LS3			LANK			LHEE			LTOE			RHJC			LHJC		
		X1	Y1	Z1	X2	Y2	Z2	X3	Y3	Z3	X4	Y4	Z4	X5	Y5	Z5	X6	Y6	Z6	X7	Y7	Z7	X8	Y8	Z8	X9	Y9	Z9	X10	Y10	Z10	X11	Y11	Z11	X12	Y12	Z12	X13	Y13	Z13	X14	Y14	Z14	X15	Y15	Z15	X16	Y16	Z16	X17	Y17	Z17	X18	Y18	Z18	X19	Y19	Z19	X20	Y20	Z20	X21	Y21	Z21	X22	Y22	Z22	X23	Y23	Z23	X24	Y24	Z24	X25	Y25	Z25	X26	Y26	Z26	X27	Y27	Z27	X28	Y28	Z28	X29	Y29	Z29	X30	Y30	Z30	

77	0.380000	-957.038147	1252.696045	182.491257	-1001.188599	1068.672974	180.640701	-834.272583	1203.943481	179.911682	-794.255371	1070.087036	175.730743	-988.424988	1181.839966	278.661865	-858.946472	863.181091	74.273293	-858.468628	867.176697	277.533905	-1021.758179	905.453796	177.817245	-829.269226	695.106873	331.677582	-836.924377	629.467957	342.709686	-787.659180	643.425842	327.061157	-756.967651	502.992279	328.464691	-838.254456	387.055695	343.677185	-875.088440	332.921204	331.112244	-826.011719	321.539551	338.100739	-916.057068	141.347504	303.288513	-952.835327	138.082565	242.422409	-793.461182	82.276237	312.402252	-915.247742	664.546753	45.393452	-947.512329	606.745056	56.544796	-896.608154	604.246887	67.006905	-939.638733	458.921722	98.040092	-1005.306458	326.195709	80.044289	-1026.391479	264.905579	93.199547	-975.964233	269.968109	99.779694	-1049.518677	90.676735	135.579803	-1092.789307	87.377121	175.792587	-905.470032	60.688515	174.967484	-924.502058	808.885371	251.568590	-924.851751	805.961327	102.819446	
78	0.385000	-950.526367	1252.167480	182.620819	-994.876526	1068.155640	180.988403	-827.779419	1203.264404	180.070343	-787.992004	1069.322388	175.703934	-982.033325	1181.244751	278.702667	-853.413330	862.630676	74.308762	-851.934509	866.406860	277.652985	-1015.609436	904.965454	178.745956	-822.187866	694.649109	331.594910	-829.594055	628.899231	342.379639	-780.405518	643.124878	326.670837	-749.637085	502.764069	327.506409	-827.592224	384.655731	343.634308	-862.609924	329.261475	331.296631	-813.200562	319.583923	338.162903	-897.073303	136.205505	304.357330	-933.894897	131.551331	243.599915	-772.515808	81.517097	313.569794	-911.159668	664.202942	45.774273	-943.838684	606.649963	56.924160	-892.992371	603.807007	67.439026	-937.344971	458.682465	98.179077	-1003.702576	326.422211	80.403732	-1025.081665	265.250305	93.565132	-974.647400	270.047302	100.160484	-1049.399170	91.093552	136.076309	-1092.541992	88.009575	176.446655	-905.372803	60.639748	174.917542	-918.154312	808.191683	251.934832	-919.236491	805.428327	103.130547	
79	0.390000	-943.997925	1251.589966	182.761749	-988.545715	1067.588867	181.348648	-821.265503	1202.536133	180.240219	-781.712830	1068.506470	175.691620	-975.625732	1180.598999	278.753815	-847.870361	862.051208	74.356178	-845.373291	865.567444	277.778778	-1009.430542	904.434692	179.692612	-815.259521	693.994568	331.483734	-822.496216	628.142090	341.953674	-773.343567	642.601929	326.274567	-742.575928	502.338593	326.498810	-817.038086	382.165863	343.585205	-850.161011	325.549408	331.491211	-800.462402	317.630035	338.192505	-877.916565	131.225601	305.432892	-914.758057	125.201927	244.801178	-751.529114	80.961258	314.664703	-907.082947	663.850708	46.135227	-940.153809	606.534363	57.311653	-889.362244	603.357666	67.860535	-934.980957	458.443115	98.337654	-1002.068115	326.662384	80.795815	-1023.754333	265.614777	93.970970	-973.307739	270.132904	100.558281	-1049.272583	91.536339	136.579071	-1092.288330	88.669304	177.104492	-905.282288	60.591854	174.869339	-911.782741	807.437246	252.303030	-913.609986	804.864221	103.447394	
80	0.395000	-937.452271	1250.965088	182.914902	-982.194397	1066.973877	181.720993	-814.730286	1201.760864	180.422348	-775.416138	1067.642334	175.694962	-969.201599	1179.904053	278.816040	-842.314331	861.444580	74.413643	-838.781311	864.663025	277.907043	-1003.218567	903.863220	180.655746	-808.493469	693.135437	331.342346	-815.646606	627.193604	341.434021	-766.487976	641.845093	325.867371	-735.782654	501.719788	325.447571	-806.594299	379.605499	343.523895	-837.746521	321.813416	331.688538	-787.808105	315.699860	338.188721	-858.609558	126.453430	306.509247	-895.446289	119.080925	246.017838	-730.524536	80.637589	315.679535	-903.017334	663.491577	46.474258	-936.463806	606.401733	57.704838	-885.722534	602.897461	68.266533	-932.547546	458.203125	98.509521	-1000.418701	326.918335	81.213707	-1022.427002	266.002228	94.413849	-971.960754	270.224518	100.956764	-1049.138184	92.005859	137.079651	-1092.028809	89.358070	177.755173	-905.198242	60.545498	174.822372	-905.383181	806.626245	252.670336	-907.968387	804.271222	103.768716	
